<?xml version="1.0" encoding="utf-8"?>
<svg viewBox="157.973 101.699 444.585 406.798" xmlns="http://www.w3.org/2000/svg">
  <defs>
    <style>
      .cls-1 {
        fill: #c2262b;
      }

      .cls-1, .cls-2, .cls-3, .cls-4 {
        stroke-width: 0px;
      }

      .cls-2 {
        fill: #fff;
      }

      .cls-3 {
        fill: #231f20;
      }

      .cls-4 {
        fill: #2b75bb;
      }
    </style>
  </defs>
  <g transform="matrix(0.9999999999999999, 0, 0, 0.9999999999999999, 0, -7.105427357601002e-15)">
    <path class="cls-4" d="m457.9,355.45h-223.7s-7.88,166.69,190.61,148.17c198.49-18.52,171.71-148.17,171.71-148.17h-138.63Z"/>
    <path class="cls-4" d="m241.27,375.76c-28.39-36.28,34.68-80.28,131.98-87.92,110.29-8.66,234.58,31.75,222.47,74.94-9.66,34.42-104.45,65.12-204.14,61.14-75.5-3.02-132.24-25.07-150.31-48.15Z"/>
  </g>
  <g transform="matrix(0.9999999999999999, 0, 0, 0.9999999999999999, 0, -7.105427357601002e-15)">
    <g>
      <path class="cls-2" d="m238.43,350.29c0-2.52.27-5.22.02-7.72-.39-3.84-3.13-6.9-3.38-11.02-.28-4.73.62-6.42,3.41-9.95,1.83-2.31,3.21-5.37,4.61-7.94,2.17-4,5.24-4.95,8.9-7.45,3.65-2.49,6.81-6.61,9.53-10.13,2.62-3.4,5.19-6.66,9.11-8.69,1.93-1,4.27-1.53,6.4-1.93,2.8-.52,5.91.52,8.59-.09,3.08-.7,6.03-4.55,7.92-7,3.07-3.96,7.27-6.21,12.18-7.5,3.63-.95,7.27-3.12,11.01-3.34,4.12-.25,7.74-1.26,11.68-2.05,3.01-.61,6.33.54,9.33-.04,1.15-.22,2.02-.99,3.17-1.22,2.02-.4,4.62.05,6.68.06,4.45,0,7.78-.24,11.87-1.91,3.75-1.53,6.07-3.56,10.24-3.57,2.46-.01,4.75-.76,7.18-1.04,3.44-.4,7-.09,10.47-.09,2.25,0,4.64.27,6.87.06,2.55-.24,4.87-1.13,7.46-1.2,3.24-.09,8.21-.76,11.26.21,4.81,1.53,7.84,5.76,11.17,9.15,2.63,2.68,6.77,4.72,10.63,3.96,2.58-.5,4.59-2.63,7.1-3.27,2.62-.67,6.12-.08,8.85-.08,3.88,0,7.76,0,11.63,0,3.64,0,6.44.09,9.78-1.65,3.5-1.81,7.79-4.16,11.72-4.89,2.41-.45,4.71.16,7.13-.6,2.96-.93,5.09-2.67,8.23-2.81,7.27-.31,15.27,2.1,21.01,6.73,2.78,2.25,5.75,4.58,9.39,5.35,3.31.7,6.82.21,10.19.91,3.14.65,5.03.38,7.97,1.9,2.9,1.5,4.74,1.7,8,1.66,3.86-.05,8.08.4,11.34,2.67,3.17,2.2,3.85,6.03,6.79,8.35,5.2,4.11,10.72,9.84,11.94,16.76.31,1.78.12,3.29.78,5.08.52,1.42,1.49,2.67,1.99,4.08,1.19,3.35,1.41,7.05,2.74,10.5.72,1.86.75,3.68,1.32,5.55s1.96,3.41,2.34,5.41c.78,4.07-1.48,9.47-2.32,13.55-.75,3.65-1.13,7.23-2.48,10.7-.9,2.31-.56,5.1-1.71,7.18-.8,1.45-2.64,2.96-3.99,3.9-3.04,2.11-6.38,3.41-9.79,4.71-3.22,1.23-6.8,1.51-10.17,2.71-3.49,1.24-7.04,2.54-10.5,3.88-2.7,1.05-5.26,1.73-7.89,2.74-7.06,2.7-14.06,4.31-21.04,6.67-2.78.94-5.88,2.32-8.79,2.48-2.82.15-5.11,1.1-7.97,1.07-5.61-.06-11.23,0-16.85,0-5.79,0-10.84,2.09-16.58,2.24-5.66.14-10.88,3.03-16.49,3.28-6.22.27-11.5,3.24-17.6,3.3-6.72.07-13.18,2.25-19.9,2.22-6.93-.03-13.49,1.1-20.44,1.1h-20.4c-6.04,0-12.88.86-18.71-.55-5.82-1.41-12.05-.52-17.66-2.76-3.19-1.28-6.74-1.4-9.91-2.85-1.9-.87-3.55-2-5.54-2.71s-4.17-.88-6.12-1.67c-3.69-1.49-7.2-3.45-10.93-4.94-3.86-1.54-8.21-1.72-12.21-3.02-5.01-1.64-9.36-3.78-14.5-4.87-2.8-.6-5.26-2.39-7.98-3.23-2.91-.89-5.47-1.91-8.29-2.93-3.72-1.35-8-1.32-11.55-3.12-2.76-1.4-5.38-2.26-8.27-3.41-4.08-1.62-6.87-4.02-9.44-7.59-1.16-1.61-2.47-3.53-3.25-5.37-.53-1.26-.58-2.99-1.71-3.91"/>
      <path class="cls-3" d="m239.68,350.29c.03-3.37.53-6.9-.47-10.18s-2.84-5.99-2.93-9.45c-.08-2.89.72-5.05,2.44-7.35,2.09-2.79,3.65-5.72,5.31-8.77,1.53-2.82,3.85-4.32,6.51-5.94,2.91-1.77,5.4-3.87,7.65-6.43,4.37-4.95,7.9-11.88,14.42-14.31,1.5-.56,3.15-.98,4.74-1.21,1.96-.28,3.91.12,5.88.15,3.03.05,5.33-1.12,7.48-3.21s3.7-4.72,5.92-6.74c2.37-2.15,5.29-3.57,8.34-4.48,3.5-1.05,6.94-2.8,10.53-3.44,1.72-.31,3.48-.34,5.21-.61,1.93-.31,3.84-.74,5.75-1.16s3.68-.68,5.65-.54c1.73.12,3.44.36,5.17.14s3.06-1.3,4.76-1.43c1.84-.14,3.69.17,5.53.2,3.29.05,6.65-.17,9.83-1.11s5.75-2.73,8.77-3.76c1.61-.55,3.17-.52,4.83-.68,1.97-.19,3.89-.72,5.85-.97,3.87-.49,7.94-.19,11.83-.07,1.83.06,3.67.21,5.51.03s3.51-.65,5.27-.96c3.05-.53,6.43-.61,9.53-.55,3.35.07,6.07,1.26,8.58,3.48,2.36,2.09,4.22,4.72,6.62,6.75,2.27,1.91,5.03,3.27,8.01,3.52,3.35.28,5.59-1.44,8.44-2.85,3.24-1.6,7.24-.63,10.71-.63,3.86,0,7.72,0,11.58,0,3.19,0,6.26-.17,9.19-1.53,3.25-1.51,6.29-3.39,9.73-4.47s7.14-.24,10.55-1.58c1.42-.56,2.77-1.32,4.21-1.82,1.74-.6,3.54-.62,5.37-.52,7.16.37,13.25,3.23,18.83,7.57,2.61,2.03,5.44,3.88,8.74,4.52,1.79.34,3.6.39,5.41.45,2.01.07,3.93.36,5.92.66,1.45.22,2.92.33,4.32.75,1.59.47,2.99,1.4,4.56,1.91,3.08,1,6.32.5,9.48.81,3.57.34,7.09,1.53,9.24,4.55,1.73,2.44,2.96,4.73,5.32,6.66,5.07,4.16,10.2,9.66,10.89,16.49.16,1.61.24,3.13.87,4.64.68,1.63,1.66,3.04,2.16,4.75s.81,3.51,1.2,5.27,1.08,3.5,1.55,5.27c.44,1.65.54,3.36,1.17,4.96s1.67,2.88,2.04,4.49c.74,3.17-.55,6.72-1.39,9.75-.92,3.32-1.38,6.72-2.15,10.08-.4,1.75-1.1,3.39-1.53,5.12s-.35,3.45-.94,5.08c-1.17,3.24-5.42,5.33-8.32,6.68-3.46,1.62-6.99,2.75-10.7,3.57s-7.43,2.23-11.07,3.59-7.06,2.53-10.6,3.79c-7.35,2.61-14.87,4.59-22.24,7.12-1.65.57-3.27,1.21-4.94,1.72s-3.37.64-5.12.88-3.58.76-5.4.88c-2.06.13-4.16,0-6.23,0-3.97,0-7.95-.04-11.91.04-3.56.07-7.01.88-10.49,1.53-3.66.69-7.39.6-11.03,1.45s-6.96,2.17-10.6,2.48-6.73.97-10.1,1.89c-1.57.43-3.15.85-4.76,1.13-2,.34-4.02.28-6.04.45-3.67.3-7.27,1.06-10.9,1.59-3.92.57-7.86.43-11.8.68s-7.67.67-11.52.84c-4.07.18-8.16.08-12.24.08s-7.94-.02-11.91,0c-3.58.02-7.15.29-10.72.26s-7.07-.88-10.67-1.35-7.58-.41-11.29-1.24c-1.68-.38-3.24-1.07-4.89-1.54-1.86-.53-3.78-.83-5.64-1.36-3.45-.99-6.31-3.26-9.82-4.12-1.79-.44-3.51-.79-5.21-1.52-1.84-.79-3.63-1.68-5.43-2.53-3.26-1.54-6.46-2.79-10.01-3.5s-7-1.56-10.43-2.84-6.7-2.59-10.21-3.43-6.79-2.74-10.26-3.9-6.81-2.66-10.41-3.39c-1.67-.34-3.37-.6-5.01-1.08-1.74-.5-3.31-1.38-4.97-2.09-3.22-1.37-6.68-2.29-9.61-4.25-2.57-1.71-4.51-4.13-6.22-6.67-.93-1.39-1.85-2.83-2.36-4.44-.42-1.35-.7-2.54-1.73-3.57-1.14-1.14-2.91.63-1.77,1.77,1.05,1.04,1.13,2.89,1.76,4.21.81,1.71,1.89,3.29,3,4.81,1.75,2.41,3.76,4.57,6.27,6.19,2.85,1.84,6.16,2.76,9.26,4.05,1.63.68,3.17,1.56,4.84,2.13s3.5.88,5.27,1.23c3.71.72,7.11,2.2,10.68,3.4s6.91,3.13,10.59,4,7.04,2.25,10.51,3.54,7.06,2.09,10.75,2.86c4,.83,7.53,2.53,11.2,4.27,1.5.71,3,1.43,4.55,2.02,1.79.68,3.69.89,5.51,1.46s3.52,1.67,5.29,2.52c1.66.8,3.38,1.33,5.18,1.75,3.64.84,7.14,2.29,10.84,2.83s7.48.46,11.16,1.16,7.13,1.16,10.87,1.12c7.84-.09,15.66-.26,23.5-.26,4.06,0,8.11.05,12.16-.22s7.9-.7,11.86-.84,7.8-.31,11.72-.94,7.65-1.15,11.56-1.34c3.62-.17,7.05-1.25,10.53-2.16s7.19-.94,10.77-1.73,7.18-2.25,10.91-2.6,7.38-.82,11.11-1.54c7.98-1.53,16.16-.45,24.22-.79,1.65-.07,3.25-.43,4.87-.73,1.81-.34,3.65-.36,5.44-.8,3.63-.9,7.13-2.42,10.71-3.51,7.66-2.33,15.25-4.71,22.8-7.38,3.82-1.35,7.57-2.87,11.39-4.22s7.51-1.7,11.13-3.06c5.72-2.15,13.97-5.17,15.18-12.02.27-1.53.4-3.05.89-4.53.65-1.96,1.2-3.88,1.59-5.91.66-3.43,1.4-6.77,2.29-10.15.77-2.9,1.57-6.13.85-9.12-.35-1.44-1.16-2.65-1.79-3.96-.83-1.74-.92-3.64-1.42-5.48s-1.2-3.68-1.62-5.59-.73-3.75-1.32-5.56c-.46-1.41-1.21-2.61-1.86-3.93-.94-1.93-.77-4.04-1.17-6.1-1.24-6.5-6.01-11.87-10.94-16-1.15-.96-2.27-1.83-3.15-3.07s-1.59-2.62-2.5-3.85c-1.92-2.6-4.71-4.13-7.83-4.87-3.33-.79-6.68-.33-10.03-.76s-5.87-2.42-9.11-2.88c-1.61-.23-3.22-.55-4.84-.75-2.1-.27-4.21-.2-6.32-.36-4-.31-7.16-2.15-10.25-4.59-5.31-4.2-11.22-6.89-18-7.67-3.25-.37-6.35-.32-9.38.98-1.69.73-3.31,1.65-5.15,1.94-1.98.31-4,0-5.99.35-3.3.59-6.44,2.15-9.4,3.66-1.69.86-3.32,1.85-5.16,2.34s-3.56.49-5.35.5c-3.95.01-7.91,0-11.86,0-3.34,0-6.93-.74-10.21.13-3.51.93-5.86,3.9-9.78,3.29-3.53-.55-6.07-2.88-8.39-5.4-2.08-2.26-4.17-4.59-6.81-6.22s-5.34-2.09-8.33-2.07-6.35.1-9.38.64c-1.88.34-3.71.85-5.62.93-2.18.09-4.37-.1-6.55-.12-3.94-.04-7.84-.3-11.74.39-1.96.35-3.84.64-5.82.76-1.57.1-3.07.45-4.53,1.04-3.12,1.27-5.92,3.01-9.24,3.77-3.54.81-7.18.69-10.77.49-1.71-.1-3.44-.14-5.05.52-1.91.78-3.39,1.04-5.47.89-1.67-.12-3.34-.34-5.01-.15-1.93.22-3.85.78-5.75,1.18-3.71.78-7.58.75-11.18,1.97-1.74.59-3.43,1.34-5.17,1.92-1.64.55-3.32.93-4.93,1.57-2.77,1.09-5.35,2.61-7.49,4.68-2.29,2.21-3.88,5.03-6.33,7.11-3.12,2.65-6.53,1.23-10.21,1.53-3.26.26-6.73,1.31-9.47,3.11-5.74,3.77-8.97,10.22-13.73,15.02-2.45,2.47-5.37,3.98-8.19,5.93-2.57,1.77-4.09,3.99-5.52,6.74-.81,1.56-1.62,3.13-2.58,4.61-.89,1.36-1.99,2.57-2.86,3.94-1.46,2.3-1.92,4.82-1.8,7.51.13,3.13,1.45,5.7,2.56,8.56,1.36,3.49.86,7.13.83,10.79-.01,1.61,2.49,1.61,2.5,0h0Z"/>
    </g>
    <g>
      <path class="cls-3" d="m279.02,311.48c1.38-1.52,3.51-2.51,5.38-3.29,2.12-.89,4.28-1.09,6.56-1.07,2.53.03,4.99.18,7.41.93,2.79.86,5.57.51,8.44.48,1.61-.01,1.61-2.51,0-2.5-1.53.01-3.05.15-4.58.13s-2.89-.48-4.37-.89c-2.54-.7-5.47-.71-8.09-.65-2.34.05-4.48.48-6.63,1.4s-4.35,1.99-5.89,3.68c-1.08,1.19.68,2.96,1.77,1.77h0Z"/>
      <path class="cls-3" d="m548.08,316.33c-2.56-2.61-4.85-5.92-8.58-6.89-2.81-.73-5.13,0-6.89,2.29-.74.96-1.37,2.01-2.25,2.85-1.52,1.45-3.46,1.51-5.46,1.41-1.73-.09-3.69-.27-5.31.47-1.41.65-2.24,2.06-3.62,2.73-3.38,1.62-7.52-.24-10.46,2.67-1.14,1.13.62,2.9,1.77,1.77,1.04-1.03,2.49-1.15,3.89-1.22,1.57-.08,3.19-.07,4.71-.52,1.62-.48,2.62-1.46,3.86-2.53,1.17-1.01,2.56-.97,4.04-.92,2.01.07,4.02.29,5.93-.5,1.21-.5,2.24-1.31,3.09-2.31,1.23-1.44,2.2-3.89,4.36-3.99,4.03-.18,6.65,3.94,9.14,6.47,1.13,1.15,2.9-.62,1.77-1.77h0Z"/>
      <path class="cls-3" d="m305.8,346.21c.46-3.21,3.05-5.42,5.84-6.75,3.11-1.48,6.21-1.56,9.38-.24,3.42,1.43,6.5,3.38,10.3,3.57,2.14.11,4.33-.21,6.45.2s4.2,1.31,6.31,1.86c2.34.61,4.55,1.43,6.8,2.31s4.33,1.36,6.64,1.07c1.58-.19,1.6-2.7,0-2.5-2.27.28-4.27-.3-6.35-1.13s-4.22-1.58-6.43-2.16-4.45-1.57-6.72-1.93-4.46-.1-6.7-.21c-4.02-.2-7.29-2.8-11.02-3.99-3.37-1.08-6.79-.5-9.93,1-3.3,1.58-6.45,4.46-6.99,8.25-.23,1.57,2.18,2.25,2.41.66h0Z"/>
      <path class="cls-3" d="m424.58,352.28c1.59-1.87,2.84-4.47,5.41-5.07,3.3-.76,7.02.47,9.36,2.86,1.13,1.15,2.89-.62,1.77-1.77-2.92-2.98-7.26-4.29-11.36-3.59-1.52.26-2.89.99-3.97,2.09s-1.96,2.5-2.98,3.7.72,2.99,1.77,1.77h0Z"/>
      <path class="cls-3" d="m354.22,287.58c1.66-.01,3.31-.24,4.96-.29,1.35-.04,2.92-.09,4.06.74.94.69,1.62,1.69,2.49,2.46,1.11.98,2.41,1.59,3.92,1.5,1.6-.09,1.61-2.59,0-2.5-1.23.07-2.02-.59-2.84-1.44-.88-.92-1.73-1.95-2.89-2.53-2.94-1.48-6.58-.47-9.71-.44-1.61.01-1.61,2.51,0,2.5h0Z"/>
      <path class="cls-3" d="m520.73,356.76c-2.98-.01-5.95-.24-8.93-.21s-5.96.48-8.91,1.3c-2.72.76-5.19,1.98-7.83,2.91-2.11.75-4.47,1.33-6.1,2.98-1.13,1.15.64,2.92,1.77,1.77,1.45-1.47,3.76-1.85,5.62-2.56,2.56-.98,4.98-2.08,7.64-2.8,5.55-1.51,11.05-.9,16.73-.88,1.61,0,1.61-2.49,0-2.5h0Z"/>
    </g>
  </g>
  <path class="cls-1" d="m330.58,166.4c.02.06-5.22.84-5.16,1.05.04.15,2.92-.92,6.1-.31,5.66,1.07,11.01,1.16,16.58.63,3.22-.31,6.34-.59,9.6-.79,5.06-.31,9.74-1.81,14.49-3,4.11-1.03,8.37-2.13,12.72-2.57,3.51-.35,6.58-.76,9.92-1.64,8.85-2.33,19.37,1.02,28.48,2.66,3.01.54,5.71,1.47,8.67,2.12,1.29.28,2.29.89,3.54,1.25,1.82.52,3.88.59,5.73.99,3.11.68,6.04,2.12,9.12,2.83,2.82.65,5.49,1.28,8.08,2.56,4.06,2.01,8.78,4.13,12.29,6.87,2.3,1.79,4.42,3.48,6.43,5.53,2.44,2.49,5.83,4.35,8.32,6.84,3.94,3.93,7.85,7.76,11.44,11.91,2.08,2.41,3.45,5.56,4.94,8.22,2.37,4.23,4.34,8.52,6.02,12.91,1.27,3.32,1.89,6.76,3.03,10.05.86,2.49,2.06,4.84,2.42,7.44.32,2.29-.04,4.45.13,6.7.14,1.8-.51,3.7-.83,5.46-.33,1.85-.37,3.94-1.17,5.66-.62,1.34-1.65,2.5-2.03,3.94-.31,1.15-.26,2.33-.73,3.45-.62,1.47-1.68,2.75-2.1,4.3-.31,1.16-.19,2.42-.66,3.54-1.17,2.79-2.71,5.42-3.59,8.33-1.17,3.88-2.67,8.38-5.48,11.67-1.31,1.53-2.74,2.62-4.45,3.8-3.51,2.44-6.19,5.42-9.97,7.67-6.97,4.13-14.04,8.22-22.24,10.84-6.04,1.93-12.79,4.54-19.4,5.18-1.56.15-3.22.3-4.81.21-1.37-.08-2.67-.57-4.03-.64-2.76-.13-5.37.12-8.12-.4-3.21-.61-6.31-.64-9.51-1.14-5.06-.79-9.61-2.46-14.46-3.84-2.43-.69-4.54-1.34-7.07-1.78-2.11-.37-4.25-.66-6.3-1.25-4.86-1.4-9.68-2.98-14.05-5.26-5.73-3-11.68-5.33-16.94-8.95-2.92-2.01-5.88-4.45-7.48-7.29-.74-1.32-1.21-2.69-2.12-3.96-1.03-1.44-2.5-2.67-3.53-4.11-1.48-2.06-2.59-4.72-4.96-6.22-1.77-1.12-2.17-2.43-3.39-3.89-1.09-1.31-2.62-2.31-3.8-3.57-2.42-2.57-4.19-5.36-6.77-7.78-2.46-2.3-4.02-4.63-5.88-7.2-.76-1.05-1.89-1.95-2.64-3-.84-1.18-1.04-2.44-1.94-3.62-1.94-2.52-3.51-4.74-4.91-7.47-1.33-2.6-2.06-5.29-3.76-7.73-1.34-1.93-2.74-3.82-3.96-5.77-1.31-2.09-2.89-4.12-4.38-6.17-.81-1.12-.88-2.27-1.31-3.45-.62-1.68-1.81-3.05-2.85-4.59-1.71-2.52-3.29-4.67-6.19-6.48-2.47-1.53-5.21-3.11-7.99-4.11-1.57-.56-3.01-1.26-4.69-1.54-2.47-.41-4.47-1.4-6.73-2.22-1.95-.71-3.9-1.7-5.95-2.27-3.2-.9-6.51-1.69-9.06-3.74-1.36-1.09-1.76-2.72-2.55-4.05-.99-1.66-1.79-3.21-2.48-4.95-.5-1.24-1.31-2.59-1.41-3.87-.08-1.01.35-2.07.53-3.05.59-3.34,3.21-5.75,4.49-8.86.39-.95.21-2,.66-2.96.59-1.27.93-2.25,1.2-3.67.36-1.9,1.33-3.6,1.76-5.46.32-1.35.38-2.23,1.29-3.43,2.7-3.56,6.59-9.08,12.89-8.15,2.18.32,4.73.7,6.86,1.26,1.54.4,2.58,1.21,4,1.77.87.34,1.76.41,2.65.72,5.35,1.9,8.29,5.82,11.93,9.35,4.91,4.77,11.92,7.05,19.15,8,1.67.22,3.26,0,4.93.28,2.39.4,2.79.64,4.86.79,1.79.13,3.22,0,4.81-.13,2.22-.18,3.81-.48,3.82-.45Z" transform="matrix(0.9999999999999999, 0, 0, 0.9999999999999999, 0, -7.105427357601002e-15)"/>
  <g transform="matrix(0.9999999999999999, 0, 0, 0.9999999999999999, 0, -7.105427357601002e-15)">
    <path class="cls-2" d="m256.42,151.26c-6.6-1.2-13.48-1.27-20.05-3.05-3.93-1.07-7.28-4.11-9.91-6.56-2.24-2.08-5.17-3.87-7.89-5.56-3.11-1.93-6.59-3.67-9.47-5.78-3.65-2.67-5.78-6.29-6.89-10.01-.25-.82-.61-1.36-1.04-2.13s-.67-1.67-1.09-2.45c-.72-1.34-2.66-3.01-4.12-4-2.07-1.42-5.03-1.59-7.5-2.04-2.53-.46-5.41-1.44-7.87-.92-2.79.59-2.72,2.07-3.52,3.91-.86,1.97-1.77,4.17-1.54,6.38.25,2.35.88,5,1.85,7.28.8,1.9,2.98,3.44.79,5.12-1.09.84-3.43,1.55-4.86,1.93-1.69.45-2.86.62-4.36,1.43-2.31,1.25-3.83,1.87-4.34,4.23-.75,3.43-2.09,7.09-.45,10.55,1.87,3.94,6.09,7.43,11.28,8.34,1.91.34,3.74.9,5.61.6,2.06-.34,3.74-.4,5.9-.34,2.37.06,4.42.37,6.81.81,2.83.53,5.58.41,8.37.95,2.52.48,5.05.96,7.58,1.39,1.86.32,2.91,1.18,4.64,1.84,4.13,1.58,8.46,3.49,12.95,3.18,3.96-.28,7.93.74,11.86,1.45,3.22.58,6.43,1.17,9.65,1.75"/>
    <path class="cls-3" d="m256.75,150.06c-4.34-.77-8.73-1.08-13.09-1.69s-8.37-1.34-11.93-3.87c-3.14-2.23-5.73-5.07-8.96-7.21-3.47-2.3-7.16-4.25-10.69-6.46s-6.09-4.71-7.76-8.38c-.74-1.63-1.24-3.29-2.07-4.88-.43-.84-.68-1.76-1.16-2.58-.43-.73-1.02-1.4-1.63-1.99-1.21-1.19-2.63-2.37-4.2-3.05-1.69-.73-3.51-.98-5.32-1.26-3.52-.55-7.53-2.23-11.01-.67-1.25.56-1.97,1.52-2.46,2.76-.61,1.55-1.33,3.09-1.79,4.69-1.05,3.71.06,8.27,1.69,11.68.35.73.86,1.36,1.23,2.07.43.82.07,1.15-.7,1.59-1.49.84-3.27,1.24-4.92,1.65-1.78.45-3.35,1.11-4.95,2-1.22.68-2.4,1.49-3.07,2.76-.82,1.55-1.09,3.59-1.43,5.3-.38,1.9-.58,3.85-.15,5.76.73,3.24,3.22,6.04,5.84,7.94,3.05,2.22,6.81,3.17,10.51,3.59,2.08.24,4.17-.32,6.26-.36s4.26.09,6.37.42c4.35.68,8.72.99,13.05,1.8,2.06.39,4.36.53,6.33,1.26,1.74.64,3.41,1.53,5.16,2.2,2.03.78,4.08,1.55,6.21,2.03s4.05.47,6.16.43c4.52-.09,9.05,1.17,13.47,1.97,2.25.41,4.5.82,6.76,1.23,1.57.29,2.25-2.12.66-2.41-4.32-.78-8.65-1.56-12.96-2.39-2.07-.4-4.16-.76-6.27-.87s-4.18.18-6.28-.19c-3.85-.68-7.56-2.31-11.09-3.93-1.78-.82-3.67-1.04-5.59-1.38-2.07-.38-4.13-.85-6.22-1.11s-4.29-.29-6.41-.64c-1.99-.33-3.97-.69-5.99-.83s-3.88-.13-5.81.08c-.96.1-1.91.32-2.88.29-1.15-.04-2.28-.33-3.4-.55-3.45-.67-6.53-2.1-8.92-4.74-1.1-1.21-2.08-2.68-2.48-4.28-.49-1.95-.07-4,.38-5.92.34-1.47.45-3.35,1.66-4.39,1.12-.96,2.77-1.77,4.16-2.22,1.58-.51,3.22-.81,4.79-1.36,1.42-.5,3.09-1.1,3.99-2.39s.5-2.66-.23-3.89c-.97-1.62-1.67-3.19-2.14-5.04s-.95-3.91-.52-5.85c.38-1.73,1.19-3.35,1.82-5,1.23-3.21,5.89-1.61,8.37-1.08,1.76.38,3.55.54,5.3.95s3.19,1.25,4.56,2.45c2.69,2.37,3.58,5.9,4.96,9.09s3.56,5.98,6.36,8.08c3.19,2.39,6.82,4.15,10.2,6.25,1.7,1.06,3.4,2.11,5.01,3.31,1.48,1.1,2.78,2.41,4.17,3.61,2.83,2.45,5.84,4.38,9.5,5.26,4.09.99,8.3,1.39,12.48,1.86,2.15.24,4.29.51,6.42.89,1.57.28,2.25-2.13.66-2.41h0Z"/>
  </g>
</svg>